<svg xmlns="http://www.w3.org/2000/svg" viewBox="0 0 160 160" role="img" aria-label="glowing grass">
  <defs>
    <radialGradient id="glow" cx="50%" cy="46%" r="58%">
      <stop offset="0%" stop-color="#f0f9ff" stop-opacity="1"/>
      <stop offset="42%" stop-color="#7dd3fc" stop-opacity=".86"/>
      <stop offset="100%" stop-color="#0ea5e9" stop-opacity="0"/>
    </radialGradient>
    <linearGradient id="leaf" x1="30%" x2="70%" y1="100%" y2="0%">
      <stop offset="0%" stop-color="#164e63"/>
      <stop offset="44%" stop-color="#38bdf8"/>
      <stop offset="100%" stop-color="#f0f9ff"/>
    </linearGradient>
  </defs>
  <circle cx="80" cy="80" r="72" fill="url(#glow)"/>
  <path d="M78 132C62 100 59 70 72 28c18 33 24 71 6 104Z" fill="url(#leaf)" stroke="#e0f2fe" stroke-width="3" opacity=".92"/>
  <path d="M55 132C38 102 34 82 43 53c24 25 34 50 12 79Z" fill="url(#leaf)" stroke="#bae6fd" stroke-width="3" opacity=".9"/>
  <path d="M101 132c18-31 20-55 8-89-22 29-29 58-8 89Z" fill="url(#leaf)" stroke="#bae6fd" stroke-width="3" opacity=".9"/>
  <path d="M81 130c7-35 11-65 8-103" fill="none" stroke="#f0f9ff" stroke-width="2" opacity=".68"/>
  <circle cx="49" cy="48" r="5" fill="#f0f9ff"/>
  <circle cx="108" cy="56" r="4" fill="#f0f9ff"/>
  <circle cx="87" cy="30" r="3" fill="#f0f9ff"/>
</svg>
